<svg id="Icon" enable-background="new 0 0 96 96" height="512" viewBox="0 0 96 96" width="512" xmlns="http://www.w3.org/2000/svg" xmlns:xlink="http://www.w3.org/1999/xlink"><linearGradient id="Fast_Delivery_1_" gradientUnits="userSpaceOnUse" x1="47.836" x2="47.836" y1="14" y2="82"><stop offset="0" stop-color="#f44369"/><stop offset="1" stop-color="#3e3b92"/></linearGradient><path id="Fast_Delivery" d="m89.125 47.022-12.25-13.69c-1.895-2.117-4.61-3.332-7.452-3.332h-10.966l1.038-9.338c.188-1.694-.357-3.395-1.494-4.664s-2.766-1.998-4.47-1.998h-41.531c-1.104 0-2 .896-2 2s.896 2 2 2h41.531c.576 0 1.105.236 1.49.666.384.43.562.981.498 1.555l-5.309 47.779h-11.058c-.048-2.404-.849-4.625-2.347-6.411-1.943-2.315-4.798-3.589-8.041-3.589-5.876 0-11.507 4.357-13.311 10h-9.453c-1.104 0-2 .896-2 2s.896 2 2 2h8.848c.048 2.404.849 4.625 2.347 6.411 1.943 2.315 4.798 3.589 8.041 3.589 5.876 0 11.507-4.357 13.311-10h19.301c.048 2.404.849 4.625 2.347 6.411 1.943 2.315 4.798 3.589 8.041 3.589 5.876 0 11.507-4.357 13.311-10h2.852c3.08 0 5.645-2.31 5.967-5.372l1.252-11.891c.295-2.801-.614-5.613-2.493-7.715zm-54.095 22.63c-.811 4.604-5.205 8.348-9.794 8.348-2.04 0-3.808-.768-4.977-2.16-1.204-1.435-1.662-3.385-1.29-5.492.812-4.604 5.206-8.348 9.795-8.348 2.04 0 3.808.768 4.977 2.16 1.203 1.435 1.661 3.385 1.289 5.492zm43 0c-.811 4.604-5.205 8.348-9.794 8.348-2.04 0-3.808-.768-4.977-2.16-1.204-1.435-1.662-3.385-1.29-5.492.812-4.604 5.206-8.348 9.795-8.348 2.04 0 3.808.768 4.977 2.16 1.203 1.435 1.661 3.385 1.289 5.492zm9.61-15.333-1.252 11.891c-.108 1.02-.962 1.79-1.989 1.79h-2.247c-.048-2.404-.849-4.625-2.347-6.411-1.943-2.315-4.798-3.589-8.041-3.589-5.876 0-11.507 4.357-13.311 10h-4.219l3.779-34h11.41c1.705 0 3.335.729 4.472 2l12.25 13.689c1.126 1.261 1.671 2.949 1.495 4.63zm-17.165-15.671c-.379-.413-.914-.648-1.475-.648h-5c-1.04 0-1.906.797-1.993 1.834l-1 12c-.046.558.143 1.108.521 1.521.379.411.912.645 1.472.645h17c.793 0 1.512-.469 1.831-1.194.319-.727.179-1.572-.356-2.157zm-5.301 11.352.666-8h2.28l7.333 8zm-23.174-20h-14c-1.104 0-2-.896-2-2s.896-2 2-2h14c1.104 0 2 .896 2 2s-.896 2-2 2zm-26 0c-1.104 0-2-.896-2-2s.896-2 2-2h4c1.104 0 2 .896 2 2s-.896 2-2 2zm22 8c1.104 0 2 .896 2 2s-.896 2-2 2h-4c-1.104 0-2-.896-2-2s.896-2 2-2zm-26 0h14c1.104 0 2 .896 2 2s-.896 2-2 2h-14c-1.104 0-2-.896-2-2s.896-2 2-2zm-6 14c0-1.104.896-2 2-2h26c1.104 0 2 .896 2 2s-.896 2-2 2h-26c-1.104 0-2-.896-2-2zm51 28c0 1.104-.896 2-2 2h-9c-1.104 0-2-.896-2-2s.896-2 2-2h9c1.104 0 2 .896 2 2zm-43 0c0 1.104-.896 2-2 2h-5c-1.104 0-2-.896-2-2s.896-2 2-2h5c1.104 0 2 .896 2 2z" fill="url(#Fast_Delivery_1_)"/></svg>